<svg version="1.1" id="Layer_1" xmlns="http://www.w3.org/2000/svg" xmlns:xlink="http://www.w3.org/1999/xlink" x="0px" y="0px"
	 width="100%" viewBox="0 0 355 346" enable-background="new 0 0 355 346" xml:space="preserve">
<path fill="#ECECEC" opacity="1.000000" stroke="none" 
	d="
M207.000000,347.000000 
	C139.333344,347.000000 72.166626,346.966705 5.000223,347.096558 
	C1.575636,347.103180 0.901187,346.423981 0.904691,342.999939 
	C1.019991,230.333405 1.019983,117.666718 0.904710,5.000195 
	C0.901207,1.576433 1.575840,0.901336 4.999995,0.904733 
	C120.666527,1.019479 236.333206,1.019468 351.999756,0.904768 
	C355.423340,0.901374 356.098846,1.575637 356.095337,4.999935 
	C355.980042,117.666466 355.980011,230.333145 356.095276,342.999695 
	C356.098755,346.423187 355.425812,347.107941 351.999908,347.097717 
	C303.833618,346.953857 255.666733,347.000000 207.000000,347.000000 
z"/>
<path fill="#292929" opacity="1.000000" stroke="none" 
	d="
M131.000061,32.829502 
	C165.162048,32.829556 198.824051,32.818153 232.486038,32.836063 
	C243.823929,32.842094 245.890244,34.917835 245.909531,46.211895 
	C245.930588,58.543480 246.088333,70.879005 245.813156,83.204475 
	C245.726410,87.089989 246.959351,87.873734 250.573013,87.792534 
	C260.398376,87.571762 270.236938,87.617500 280.063049,87.855095 
	C287.501678,88.034950 290.083649,90.301147 290.456177,97.709846 
	C290.924225,107.018478 290.731140,116.362404 290.747803,125.691238 
	C290.779053,143.188751 290.778534,160.686401 290.745270,178.183914 
	C290.730530,185.949905 289.427307,187.273895 281.821838,187.313782 
	C272.823334,187.360977 263.824280,187.348404 254.825775,187.301453 
	C253.477676,187.294418 251.482590,187.962173 251.455627,185.552917 
	C251.428329,183.112976 253.436508,183.788895 254.778687,183.781631 
	C263.610535,183.733749 272.447449,183.586777 281.272827,183.830795 
	C285.482422,183.947189 287.114990,182.824005 287.078491,178.254196 
	C286.873657,152.592743 286.996490,126.928764 286.971130,101.265686 
	C286.962372,92.417160 285.852600,91.315567 276.780945,91.279640 
	C263.116394,91.225517 249.451462,91.265114 235.786697,91.265114 
	C173.462021,91.265091 111.137337,91.263412 48.812653,91.266716 
	C37.190434,91.267334 36.764885,91.697601 36.763401,103.325859 
	C36.760197,128.489029 36.833878,153.652634 36.685192,178.814926 
	C36.663033,182.565552 37.426567,184.017685 41.545849,183.861832 
	C50.531731,183.521820 59.539742,183.716690 68.537735,183.799622 
	C69.919380,183.812347 72.266525,182.787537 72.073883,185.743851 
	C71.910645,188.248978 69.856422,187.270676 68.607170,187.280655 
	C58.609203,187.360565 48.609375,187.244095 38.612160,187.361618 
	C34.642456,187.408264 32.912323,185.960938 32.928722,181.793976 
	C33.036953,154.298233 32.938938,126.801735 33.023262,99.305832 
	C33.049423,90.774139 35.841530,87.959023 44.454971,87.783363 
	C54.116299,87.586334 63.787407,87.573669 73.447777,87.781731 
	C76.911026,87.856316 77.998497,86.888031 77.942856,83.342133 
	C77.738953,70.347153 77.804451,57.346664 77.883125,44.348949 
	C77.938538,35.195141 80.254120,32.904949 89.506004,32.853256 
	C103.170303,32.776909 116.835327,32.830975 131.000061,32.829502 
z"/>
<path fill="#2A2A2A" opacity="1.000000" stroke="none" 
	d="
M156.460999,281.604767 
	C146.742401,277.990295 137.370300,274.597870 128.044861,271.081757 
	C125.606499,270.162354 123.417854,270.046814 120.849426,270.861176 
	C108.498482,274.777069 96.081253,278.485138 83.672523,282.216980 
	C78.565849,283.752777 77.872200,283.237518 77.869911,277.803375 
	C77.850113,230.827713 77.847687,183.852036 77.872559,136.876373 
	C77.876038,130.302795 79.262833,128.886154 85.734917,128.882797 
	C136.375351,128.856613 187.015778,128.857437 237.656219,128.878967 
	C244.330338,128.881805 245.898331,130.435074 245.902328,137.124496 
	C245.930298,183.933563 245.927002,230.742661 245.906662,277.551758 
	C245.904251,283.072266 244.965790,283.748199 239.703979,282.154785 
	C227.938187,278.591797 216.148712,275.098633 204.454285,271.313171 
	C200.752884,270.115021 197.563797,270.249268 193.940445,271.702393 
	C185.002563,275.286865 175.843460,278.316406 166.868347,281.813049 
	C163.392960,283.167053 160.169632,283.505127 156.460999,281.604767 
z"/>
<path fill="#CED0D6" opacity="1.000000" stroke="none" 
	d="
M85.433212,36.855808 
	C88.215630,36.672195 90.540489,36.461124 92.865440,36.460140 
	C138.817368,36.440678 184.769318,36.445488 230.721252,36.445892 
	C231.886688,36.445900 233.053558,36.415424 234.217346,36.460957 
	C241.138672,36.731720 242.030807,37.562164 242.058578,44.341946 
	C242.112457,57.494644 241.998596,70.648567 242.140732,83.799957 
	C242.172882,86.775383 241.414658,87.798393 238.271088,87.792694 
	C187.324539,87.700279 136.377747,87.703918 85.431145,87.783714 
	C82.351868,87.788536 81.422096,86.806839 81.453209,83.778320 
	C81.588303,70.626778 81.431740,57.472092 81.590012,44.321060 
	C81.623360,41.549854 80.876503,38.013634 85.433212,36.855808 
z"/>
<path fill="#CFD1D7" opacity="1.000000" stroke="none" 
	d="
M242.071869,218.000000 
	C242.071869,238.476364 242.071869,258.452728 242.071869,278.996552 
	C229.333725,275.124420 216.942047,271.529572 204.682266,267.530334 
	C200.800430,266.264038 197.471878,266.335999 193.696701,267.820831 
	C184.267365,271.529572 174.666046,274.798737 165.185333,278.380859 
	C162.852432,279.262299 160.819336,279.276611 158.472763,278.385803 
	C148.376007,274.552856 138.193817,270.945251 128.089935,267.130615 
	C125.627983,266.201141 123.419151,266.133484 120.881111,266.942352 
	C109.323914,270.625671 97.688049,274.061676 86.122353,277.719086 
	C82.948898,278.722595 81.436188,278.700195 81.447395,274.551178 
	C81.570717,228.915115 81.561737,183.278503 81.462158,137.642319 
	C81.453690,133.760986 82.681290,132.469284 86.607025,132.477325 
	C136.740234,132.580139 186.873856,132.592728 237.006927,132.459961 
	C241.397018,132.448318 242.165024,134.152710 242.144180,138.053223 
	C242.002762,164.534851 242.071213,191.017609 242.071869,218.000000 
z"/>
<path fill="#373738" opacity="1.000000" stroke="none" 
	d="
M135.020004,224.860138 
	C155.802856,224.860199 176.089844,224.840927 196.376617,224.896835 
	C198.012512,224.901337 200.710251,224.019073 200.743134,226.685410 
	C200.774963,229.264359 198.113449,228.649628 196.426315,228.652634 
	C173.312592,228.693756 150.198730,228.693192 127.085022,228.649734 
	C125.407318,228.646576 122.817543,229.226807 122.983124,226.467041 
	C123.125977,224.086166 125.541817,224.975784 127.043076,224.896942 
	C129.530533,224.766296 132.029785,224.860596 135.020004,224.860138 
z"/>
<path fill="#232323" opacity="1.000000" stroke="none" 
	d="
M164.999817,183.791656 
	C170.984283,183.791962 176.469589,183.741928 181.952850,183.825684 
	C183.447647,183.848511 185.828125,183.159348 185.757095,185.674438 
	C185.699997,187.695679 183.553299,187.253937 182.153992,187.256256 
	C163.706070,187.286758 145.258041,187.293457 126.810211,187.242676 
	C125.332329,187.238617 122.869545,187.936615 123.042305,185.398056 
	C123.201645,183.056885 125.603516,183.834000 127.105507,183.826843 
	C139.570068,183.767365 152.035034,183.792267 164.999817,183.791656 
z"/>
</svg>